<?xml version="1.0" encoding="UTF-8"?><svg id="Layer_2" xmlns="http://www.w3.org/2000/svg" viewBox="0 0 297.92 78.77"><defs><style>.cls-1{letter-spacing:.31em;}.cls-2{fill:#e84a46;}.cls-3,.cls-4{fill:#fff;}.cls-5{letter-spacing:.32em;}.cls-6{fill:#c62a2a;}.cls-7{letter-spacing:.32em;}.cls-8{fill:#e02b20;}.cls-4{font-family:Montserrat-SemiBold, Montserrat;font-size:21.73px;font-weight:600;}.cls-9{fill:#bc1915;}.cls-10{letter-spacing:.32em;}.cls-11{letter-spacing:.3em;}</style></defs><g id="OBJECTS"><path class="cls-3" d="m128.86,3.69c.78.41,1.56.93,2.34,1.57.78.64,1.47,1.43,2.06,2.37.6.95,1.08,2.05,1.45,3.33.37,1.27.55,2.75.55,4.44s-.18,3.23-.55,4.5c-.37,1.27-.85,2.39-1.45,3.36-.6.97-1.28,1.78-2.06,2.43-.78.66-1.56,1.19-2.34,1.6-1.89,1.03-4.03,1.6-6.41,1.73h-14.09c-.79,0-1.43.64-1.43,1.43v16.29c0,.79-.64,1.43-1.43,1.43h-4.83c-.79,0-1.43-.64-1.43-1.43v-24c0-.79.64-1.43,1.43-1.43h21.24s.37-.03.99-.09c.62-.06,1.26-.28,1.94-.65.68-.37,1.3-.94,1.88-1.73.57-.78.86-1.91.86-3.39s-.3-2.54-.89-3.3c-.6-.76-1.24-1.32-1.94-1.69-.82-.45-1.77-.7-2.83-.74h-21.24c-.79,0-1.43-.64-1.43-1.43V3.4c0-.79.64-1.43,1.43-1.43h21.79v.06c2.38.12,4.52.68,6.41,1.66Z"/><path class="cls-3" d="m148.23,1.97h4.83c.79,0,1.43.64,1.43,1.43v38.1c0,.44-.2.86-.55,1.13l-4.83,3.75c-.94.73-2.31.06-2.31-1.13V3.4c0-.79.64-1.43,1.43-1.43Z"/><path class="cls-3" d="m164.61,45.93l15.45-19.85c.4-.52.4-1.24,0-1.76l-15.47-20.04c-.73-.94-.06-2.31,1.14-2.31h6.59c.45,0,.88.21,1.15.58l11.24,15.03c.57.76,1.72.77,2.29,0l11.36-15.04c.27-.36.69-.57,1.14-.57h6.74c1.18,0,1.85,1.34,1.15,2.29l-14.81,20.09c-.37.51-.37,1.2,0,1.71l14.79,19.9c.7.95.03,2.29-1.15,2.29h-6.72c-.45,0-.87-.21-1.14-.57l-11.36-14.98c-.58-.76-1.72-.76-2.29,0l-11.25,14.97c-.27.36-.7.57-1.15.57h-6.58c-1.19,0-1.86-1.37-1.13-2.32Z"/><path class="cls-3" d="m218.9,1.97h28c.79,0,1.43.64,1.43,1.43v4.83c0,.79-.64,1.43-1.43,1.43h-28c-.79,0-1.43-.64-1.43-1.43V3.4c0-.79.64-1.43,1.43-1.43Zm25.98,20.66v4.83c0,.79-.64,1.43-1.43,1.43h-24.55c-.79,0-1.43-.64-1.43-1.43v-4.83c0-.79.64-1.43,1.43-1.43h24.55c.79,0,1.43.64,1.43,1.43Zm-27.42,24.12v-4.83c0-.79.64-1.43,1.43-1.43h28c.79,0,1.43.64,1.43,1.43v4.83c0,.79-.64,1.43-1.43,1.43h-28c-.79,0-1.43-.64-1.43-1.43Z"/><path class="cls-3" d="m292.08,42.1v4.83c0,.79-.64,1.43-1.43,1.43h-28.06c-.79,0-1.43-.64-1.43-1.43V3.46c0-.79.64-1.43,1.43-1.43h4.83c.79,0,1.43.64,1.43,1.43v35.76c0,.79.64,1.43,1.43,1.43h20.36c.79,0,1.43.64,1.43,1.43Z"/><path class="cls-2" d="m35.98,3.66l-2.82-2.82c-1.13-1.13-2.96-1.13-4.09,0l-7.5,7.5c-1.13,1.13-2.96,1.13-4.08,0L10,.85c-1.13-1.13-2.96-1.13-4.08,0l-2.82,2.82c-1.13,1.13-1.13,2.96,0,4.08l7.5,7.5c1.13,1.13,1.13,2.96,0,4.08l-7.5,7.5c-1.13,1.13-1.13,2.96,0,4.08l2.82,2.82c1.13,1.13,2.96,1.13,4.08,0l7.5-7.5c1.13-1.13,2.96-1.13,4.08,0l7.5,7.5c1.13,1.13,2.96,1.13,4.09,0l2.82-2.82c1.13-1.13,1.13-2.96,0-4.08l-7.5-7.5c-1.13-1.13-1.13-2.96,0-4.08l7.5-7.5c1.13-1.13,1.13-2.96,0-4.08Z"/><path class="cls-9" d="m81.19,34.29h-40.3c-1.27,0-2.03-1.42-1.32-2.47L59.72,1.69c.63-.94,2.01-.94,2.64,0l20.15,30.12c.71,1.06-.05,2.47-1.32,2.47Zm-22.03-9.76h3.75c1.27,0,2.03-1.42,1.32-2.47l-1.88-2.81c-.63-.94-2.01-.94-2.64,0l-1.88,2.81c-.71,1.06.05,2.47,1.32,2.47Z"/><path class="cls-8" d="m39.07,59.23c0,11.94-10.76,21.41-23.1,19.22-7.91-1.41-14.26-7.75-15.66-15.67-1.65-9.33,3.36-17.74,11.07-21.3,1.48-.68,3.18.4,3.18,2.03v6.12c0,.68-.3,1.34-.84,1.74-3.02,2.24-4.71,6.2-3.63,10.42.89,3.47,3.75,6.2,7.25,6.97,6.35,1.39,11.98-3.43,11.98-9.53,0-3.22-1.56-6.08-3.97-7.86-.55-.41-.83-1.08-.83-1.76v-6.08c0-1.64,1.71-2.72,3.19-2.03,6.7,3.1,11.36,9.89,11.36,17.74Z"/><text class="cls-4" transform="translate(99.39 70.92)"><tspan class="cls-7" x="0" y="0">pl</tspan><tspan class="cls-1" x="35.09" y="0">a</tspan><tspan class="cls-11" x="55.01" y="0">y</tspan><tspan class="cls-5" x="74.19" y="0">g</tspan><tspan class="cls-1" x="96.22" y="0">r</tspan><tspan class="cls-5" x="112.08" y="0">ou</tspan><tspan class="cls-10" x="154.8" y="0">n</tspan><tspan class="cls-5" x="176.65" y="0">d</tspan></text><path class="cls-6" d="m74.92,42.36h-25.77c-2.3,0-4.16,1.87-4.16,4.18v25.77c0,2.31,1.87,4.18,4.16,4.18h25.77c2.31,0,4.18-1.87,4.18-4.18v-25.77c0-2.31-1.87-4.18-4.18-4.18Zm-9.17,18.5c0,1.81-1.47,3.27-3.27,3.27h-2.88c-1.81,0-3.27-1.46-3.27-3.27v-2.86c0-1.81,1.46-3.27,3.27-3.27h2.88c1.8,0,3.27,1.46,3.27,3.27v2.86Z"/></g></svg>